<svg xmlns="http://www.w3.org/2000/svg" viewBox="0 0 447.98 239.96"><path d="M447.67,13.43A70.88,70.88,0,0,1,443.45,30c-1.57,4.32-3.27,8.61-5,12.87.25-.63.4-1,.63-1.56-14.22,36.94-35.83,70.52-61.19,100.77-2.12,25,8.52,58.78,38.77,38.66,7.49-6.24,13.6-14.3,22.19-19.29,9.41-6.15,7.36,2,2.89,7.19-23,33.8-100.87,90.51-98.89,11.32-20.35,21.93-95,80.53-90.66,14-21.44,19.1-90.73,65.64-82.77,3.92-27.12,28.2-105.92,78.94-89.48-.68C61.53,214.09,2,257.52.07,207.28c-.45-13.09,1-27.3,8.84-38.22.75-2.71,22.81-24.41,19.62-13.78-8.49,11.92-7.39,28.61-3.47,42.17,11.86,24.42,43,.66,56.77-10.73,9.35-47.61,26.7-95,57.17-133.28,7.83-11.61,69-73.18,68-32.89-18.48,57.25-56.79,106.57-98.08,149.5C98.32,230.92,141,214.67,171,186A314.28,314.28,0,0,1,220.48,58.32C233.59,40,249.47,22.94,269,11.49c16.43-9.57,23.65,2.65,16.62,17.89-17.15,51.14-48.78,96-84.17,136.15-6.14,46.13,26.23,36.22,51.77,15.81,19.14-166.07,152.34-220.49,104.25-125-17.72,38.92-41.13,75.44-70.92,106.26-3.46,48.84,37.78,26.28,57.32,4.33,5.92-43.24,14.24-88.92,39.68-125.35,10.11-13.5,22.15-26,36.49-35C430.15-.64,450.75-6,447.67,13.43Zm-34.48,22c-1.61-3.62-6.13-3.83-9.49-2.93-15.41,27.45-20.07,59.63-24.26,90.43C393.61,99.45,415.54,63.14,413.19,35.38ZM333.89,47c-1.88-5.56-8.24-6.87-13.25-4.94-19.59,32.31-30.79,69.84-33.53,107.47C303.82,128.57,338.5,73.34,333.89,47ZM255,42.29c-10.19-16.42-30.84,39.14-35,46.52a263.72,263.72,0,0,0-17,61.76C225.85,119.62,252.7,81.49,255,42.29Zm-77-4.2c-12.67-14-31.08,20.3-36.84,29.71-15.18,28.51-25,59.73-30.73,91.44C135.27,132.67,178.2,74.74,178,38.09Z" fill="#2e3192"/></svg>